<mxfile host="app.diagrams.net" modified="2024-07-04T07:41:27.206Z" agent="Mozilla/5.0 (Macintosh; Intel Mac OS X 10_15_7) AppleWebKit/537.36 (KHTML, like Gecko) Chrome/126.0.0.0 Safari/537.36" etag="n5ka1R4HBBXLH4FBALsS" version="24.6.4" type="github">
  <diagram name="第 1 页" id="H2u8TSx38xKXM4tSMfjR">
    <mxGraphModel dx="763" dy="465" grid="1" gridSize="10" guides="1" tooltips="1" connect="1" arrows="1" fold="1" page="1" pageScale="1" pageWidth="827" pageHeight="1169" math="0" shadow="0">
      <root>
        <mxCell id="0" />
        <mxCell id="1" parent="0" />
        <mxCell id="8KrIb25lHnEiMQLBtpU9-6" value="" style="edgeStyle=orthogonalEdgeStyle;rounded=0;orthogonalLoop=1;jettySize=auto;html=1;endArrow=none;endFill=0;" edge="1" parent="1" source="8KrIb25lHnEiMQLBtpU9-1" target="8KrIb25lHnEiMQLBtpU9-3">
          <mxGeometry relative="1" as="geometry" />
        </mxCell>
        <mxCell id="8KrIb25lHnEiMQLBtpU9-1" value="&lt;font style=&quot;font-size: 18px;&quot;&gt;安全措施架构&lt;/font&gt;" style="rounded=0;whiteSpace=wrap;html=1;" vertex="1" parent="1">
          <mxGeometry x="200" y="120" width="160" height="40" as="geometry" />
        </mxCell>
        <mxCell id="8KrIb25lHnEiMQLBtpU9-2" value="&lt;font style=&quot;font-size: 16px;&quot;&gt;物理安全&lt;/font&gt;" style="rounded=0;whiteSpace=wrap;html=1;" vertex="1" parent="1">
          <mxGeometry x="180" y="200" width="30" height="160" as="geometry" />
        </mxCell>
        <mxCell id="8KrIb25lHnEiMQLBtpU9-3" value="&lt;font style=&quot;font-size: 16px;&quot;&gt;网络安全&lt;/font&gt;" style="rounded=0;whiteSpace=wrap;html=1;" vertex="1" parent="1">
          <mxGeometry x="265" y="200" width="30" height="160" as="geometry" />
        </mxCell>
        <mxCell id="8KrIb25lHnEiMQLBtpU9-4" value="&lt;font style=&quot;font-size: 16px;&quot;&gt;数据安全&lt;/font&gt;" style="rounded=0;whiteSpace=wrap;html=1;" vertex="1" parent="1">
          <mxGeometry x="350" y="200" width="30" height="160" as="geometry" />
        </mxCell>
        <mxCell id="8KrIb25lHnEiMQLBtpU9-7" value="" style="edgeStyle=orthogonalEdgeStyle;rounded=0;orthogonalLoop=1;jettySize=auto;html=1;endArrow=none;endFill=0;entryX=0.5;entryY=0;entryDx=0;entryDy=0;exitX=0.5;exitY=1;exitDx=0;exitDy=0;" edge="1" parent="1" source="8KrIb25lHnEiMQLBtpU9-1" target="8KrIb25lHnEiMQLBtpU9-4">
          <mxGeometry relative="1" as="geometry">
            <mxPoint x="290" y="170" as="sourcePoint" />
            <mxPoint x="290" y="210" as="targetPoint" />
          </mxGeometry>
        </mxCell>
        <mxCell id="8KrIb25lHnEiMQLBtpU9-8" value="" style="edgeStyle=orthogonalEdgeStyle;rounded=0;orthogonalLoop=1;jettySize=auto;html=1;endArrow=none;endFill=0;entryX=0.5;entryY=0;entryDx=0;entryDy=0;exitX=0.5;exitY=1;exitDx=0;exitDy=0;" edge="1" parent="1" source="8KrIb25lHnEiMQLBtpU9-1" target="8KrIb25lHnEiMQLBtpU9-2">
          <mxGeometry relative="1" as="geometry">
            <mxPoint x="280" y="161" as="sourcePoint" />
            <mxPoint x="375" y="210" as="targetPoint" />
          </mxGeometry>
        </mxCell>
      </root>
    </mxGraphModel>
  </diagram>
</mxfile>
